<svg width="28" height="32" viewBox="0 0 28 32" fill="none" xmlns="http://www.w3.org/2000/svg">
    <path fill-rule="evenodd" clip-rule="evenodd"
        d="M16.8062 2.5889C15.9078 2.20812 14.9366 2 13.9237 2C9.34021 2 5.61123 6.26169 5.61123 11.5V16.7466L3.22292 21.7855C3.11461 22.014 3.0601 22.2707 3.06472 22.5305C3.06935 22.7903 3.13296 23.0443 3.24931 23.2676C3.36566 23.4908 3.53076 23.6757 3.72845 23.8041C3.92613 23.9325 4.14961 24 4.37699 24H9.13125C9.11799 24.1662 9.11129 24.3331 9.11118 24.5C9.11118 25.9587 9.61821 27.3576 10.5207 28.3891C11.4232 29.4205 12.6473 30 13.9237 30C15.2 30 16.4241 29.4205 17.3266 28.3891C18.2291 27.3576 18.7362 25.9587 18.7362 24.5C18.7362 24.3312 18.7291 24.1647 18.7161 24H23.4704C23.6977 24 23.9212 23.9324 24.1188 23.804C24.3165 23.6756 24.4816 23.4907 24.5979 23.2675C24.7142 23.0443 24.7778 22.7903 24.7824 22.5305C24.7871 22.2707 24.7326 22.014 24.6243 21.7856H24.6244L22.2362 16.7466V11.5C22.2362 10.3507 22.0567 9.2484 21.7281 8.22781C21.2777 8.65313 20.7326 8.95213 20.1344 9.07731C20.3652 9.85014 20.4862 10.6679 20.4862 11.5V17.2534L22.7359 22H5.1115L7.36123 17.2534V11.5C7.36123 9.51088 8.05264 7.60322 9.28334 6.1967C10.5141 4.79018 12.1832 4 13.9237 4C14.6573 4 15.3782 4.14036 16.0589 4.40808C16.1699 3.72485 16.4329 3.10262 16.8062 2.5889ZM16.7324 25.898C16.9002 25.4569 16.9866 24.981 16.9862 24.5C16.9861 24.3327 16.9754 24.1656 16.9544 24H10.893C10.8325 24.476 10.8586 24.9611 10.9695 25.4251C11.0804 25.8891 11.2738 26.322 11.5376 26.6967C11.8014 27.0715 12.1299 27.3801 12.5027 27.6033C12.8756 27.8265 13.2846 27.9594 13.7044 27.9939C14.1242 28.0283 14.5457 27.9635 14.9426 27.8035C15.3395 27.6435 15.7032 27.3917 16.0112 27.0638C16.3191 26.736 16.5646 26.3391 16.7324 25.898Z"
        fill="#0055FF" />
    <ellipse cx="20" cy="4.57139" rx="3" ry="3.42857" fill="#FE9431" />
</svg>