<svg width="24" height="22" viewBox="0 0 24 22" fill="none" xmlns="http://www.w3.org/2000/svg">
<path d="M12.2384 19.3375C12.0434 19.5325 11.6968 19.565 11.4693 19.3375C11.2743 19.1425 11.2418 18.7958 11.4693 18.5683L15.1418 14.8958L13.6143 13.3683L9.94177 17.0408C9.73593 17.2575 9.38927 17.2467 9.1726 17.0408C8.9451 16.8133 8.9776 16.4667 9.1726 16.2717L12.8451 12.5992L11.3176 11.0717L7.6451 14.7442C7.4501 14.9392 7.10343 14.9717 6.87593 14.7442C6.6701 14.5383 6.6701 14.1917 6.87593 13.975L10.5484 10.3025L9.0101 8.775L5.3376 12.4475C5.1426 12.6425 4.79593 12.675 4.56843 12.4475C4.3626 12.2308 4.3626 11.895 4.56843 11.6783L9.31343 6.93333L11.3393 8.94833C12.3684 9.9775 14.1451 9.96667 15.1743 8.94833C16.2359 7.88667 16.2359 6.175 15.1743 5.11333L13.1593 3.09833L13.4626 2.795C14.3076 1.95 15.6834 1.95 16.5284 2.795L21.1218 7.38833C21.9668 8.23333 21.9668 9.60917 21.1218 10.4542L12.2384 19.3375ZM22.6493 11.9925C24.3393 10.3025 24.3393 7.56167 22.6493 5.86083L18.0559 1.2675C16.3659 -0.4225 13.6251 -0.4225 11.9243 1.2675L11.6209 1.57083L11.3176 1.2675C9.6276 -0.4225 6.88677 -0.4225 5.18593 1.2675L1.35093 5.1025C-0.1874 6.64083 -0.328234 9.035 0.917599 10.725L2.48843 9.15417C2.06593 8.34167 2.20677 7.3125 2.88927 6.63L6.72427 2.795C7.56927 1.95 8.9451 1.95 9.7901 2.795L13.6468 6.65167C13.8418 6.84667 13.8743 7.19333 13.6468 7.42083C13.4193 7.64833 13.0726 7.61583 12.8776 7.42083L9.31343 3.8675L3.0301 10.14C1.96843 11.1908 1.96843 12.9133 3.0301 13.975C3.4526 14.3975 3.99427 14.6575 4.56843 14.7333C4.64427 15.2967 4.89343 15.8383 5.32677 16.2717C5.7601 16.705 6.30177 16.9542 6.8651 17.03C6.94093 17.5933 7.1901 18.135 7.62343 18.5683C8.05677 19.0017 8.59843 19.2508 9.16177 19.3267C9.2376 19.9117 9.4976 20.4425 9.9201 20.865C10.4293 21.3742 11.1118 21.6558 11.8376 21.6558C12.5634 21.6558 13.2459 21.3742 13.7551 20.865L22.6493 11.9925Z" fill="#0055FF"/>
</svg>
