<svg width="32" height="32" viewBox="0 0 32 32" fill="none" xmlns="http://www.w3.org/2000/svg">
    <path
        d="M16 0C6.98675 0 0 6.60225 0 15.52C0 20.1846 1.91163 24.2153 5.025 26.9994C5.28625 27.2332 5.444 27.561 5.45475 27.9116L5.54187 30.7579C5.56975 31.6656 6.50738 32.2564 7.33813 31.8896L10.5139 30.4875C10.783 30.3688 11.0849 30.3467 11.3685 30.4249C12.8279 30.8261 14.381 31.0399 16 31.0399C25.0133 31.0399 32 24.4376 32 15.5199C32 6.60212 25.0133 0 16 0Z"
        fill="url(#paint0_linear_2045_1300)" />
    <path
        d="M6.39309 20.0588L11.0931 12.6022C11.8406 11.4159 13.4416 11.1206 14.5633 11.9618L18.3015 14.7656C18.4684 14.8908 18.6716 14.9582 18.8803 14.9576C19.089 14.957 19.2918 14.8884 19.458 14.7622L24.5065 10.9307C25.1802 10.4193 26.06 11.2257 25.609 11.9413L20.909 19.3981C20.1613 20.5842 18.5602 20.8796 17.4386 20.0383L13.7003 17.2346C13.5334 17.1094 13.3303 17.0421 13.1217 17.0427C12.913 17.0433 12.7103 17.1118 12.5441 17.238L7.49534 21.0694C6.82159 21.5807 5.94197 20.7745 6.39309 20.0588Z"
        fill="white" />
    <defs>
        <linearGradient id="paint0_linear_2045_1300" x1="16" y1="7.45839e-07" x2="16" y2="32"
            gradientUnits="userSpaceOnUse">
            <stop stop-color="#FF7A00" />
            <stop offset="1" stop-color="#FFB800" />
        </linearGradient>
    </defs>
</svg>