<svg width="22" height="23" viewBox="0 0 22 23" fill="none" xmlns="http://www.w3.org/2000/svg">
<path fill-rule="evenodd" clip-rule="evenodd" d="M0.599609 9.4V18.5C0.599609 19.5343 1.0105 20.5263 1.74189 21.2577C2.47328 21.9891 3.46527 22.4 4.49961 22.4H17.4996C18.534 22.4 19.5259 21.9891 20.2573 21.2577C20.9887 20.5263 21.3996 19.5343 21.3996 18.5V9.4C21.3996 8.36566 20.9887 7.37368 20.2573 6.64228C19.5259 5.91089 18.534 5.5 17.4996 5.5H4.49961C3.46527 5.5 2.47328 5.91089 1.74189 6.64228C1.0105 7.37368 0.599609 8.36566 0.599609 9.4ZM4.49961 19.8C4.15483 19.8 3.82417 19.663 3.58037 19.4192C3.33657 19.1754 3.19961 18.8448 3.19961 18.5V9.4C3.19961 9.05522 3.33657 8.72456 3.58037 8.48076C3.82417 8.23696 4.15483 8.1 4.49961 8.1H17.4996C17.8444 8.1 18.1751 8.23696 18.4188 8.48076C18.6626 8.72456 18.7996 9.05522 18.7996 9.4V18.5C18.7996 18.8448 18.6626 19.1754 18.4188 19.4192C18.1751 19.663 17.8444 19.8 17.4996 19.8H4.49961Z" fill="white"/>
<path d="M12.6636 6.31251C12.4443 6.56937 12.1336 6.73078 11.7974 6.76257C11.4611 6.79436 11.1257 6.69403 10.8621 6.48283C10.5985 6.27163 10.4275 5.96614 10.3852 5.63105C10.343 5.29595 10.4328 4.95756 10.6356 4.68752L13.2356 1.43752C13.4549 1.18066 13.7656 1.01925 14.1019 0.987464C14.4381 0.955674 14.7736 1.056 15.0371 1.2672C15.3007 1.4784 15.4717 1.78389 15.514 2.11898C15.5563 2.45408 15.4665 2.79247 15.2636 3.06252L12.6636 6.31251Z" fill="white"/>
<path d="M9.33523 6.31251C9.55456 6.56937 9.86524 6.73078 10.2015 6.76257C10.5377 6.79436 10.8732 6.69403 11.1367 6.48283C11.4003 6.27163 11.5714 5.96614 11.6136 5.63105C11.6559 5.29595 11.5661 4.95756 11.3632 4.68752L8.76323 1.43752C8.54391 1.18066 8.23323 1.01925 7.89697 0.987464C7.56072 0.955674 7.22529 1.056 6.96172 1.2672C6.69814 1.4784 6.52711 1.78389 6.48484 2.11898C6.44256 2.45408 6.53237 2.79247 6.73523 3.06252L9.33523 6.31251Z" fill="white"/>
</svg>
