<svg width="32" height="32" viewBox="0 0 32 32" fill="none" xmlns="http://www.w3.org/2000/svg">
    <path
        d="M12 0.555865C12.1952 0.79309 12.3148 1.08341 12.3434 1.38931C12.3719 1.69521 12.308 2.00264 12.16 2.27186C11.0037 4.39481 10.3999 6.77445 10.404 9.19187C10.404 17.2339 16.96 23.7459 25.04 23.7459C26.094 23.7459 27.12 23.6359 28.106 23.4259C28.4083 23.3604 28.7231 23.3854 29.0112 23.4978C29.2993 23.6102 29.5479 23.805 29.726 24.0579C29.914 24.3208 30.0098 24.6384 29.9986 24.9614C29.9874 25.2844 29.8698 25.5946 29.664 25.8439C28.0954 27.7707 26.1165 29.3233 23.8717 30.3882C21.6268 31.4532 19.1726 32.0038 16.688 31.9999C7.468 31.9999 0 24.5719 0 15.4199C0 8.53187 4.228 2.62386 10.248 0.119865C10.5479 -0.00687172 10.8808 -0.0328838 11.1967 0.0457359C11.5126 0.124356 11.7945 0.303362 12 0.555865ZM9.716 2.62186C7.40121 3.86352 5.46607 5.70915 4.11626 7.96259C2.76645 10.216 2.0524 12.7931 2.05 15.4199C2.05 23.4599 8.608 29.9719 16.688 29.9719C18.6229 29.9752 20.5392 29.5948 22.3261 28.8526C24.113 28.1104 25.7349 27.0211 27.098 25.6479C26.424 25.7319 25.738 25.7739 25.04 25.7739C15.82 25.7739 8.354 18.3459 8.354 9.19387C8.354 6.85987 8.838 4.63787 9.716 2.62186Z"
        fill="#0055FF" />
</svg>