<svg width="20" height="22" viewBox="0 0 20 22" fill="none" xmlns="http://www.w3.org/2000/svg">
<path d="M4.04167 0.166748H15.9583C16.1265 0.166748 16.2924 0.205905 16.4428 0.281118C16.5932 0.356332 16.7241 0.465536 16.825 0.600081L19.75 4.50008V20.7501C19.75 21.0374 19.6359 21.3129 19.4327 21.5161C19.2295 21.7193 18.954 21.8334 18.6667 21.8334H1.33333C1.04602 21.8334 0.770465 21.7193 0.567301 21.5161C0.364137 21.3129 0.25 21.0374 0.25 20.7501V4.50008L3.175 0.600081C3.27591 0.465536 3.40676 0.356332 3.55719 0.281118C3.70761 0.205905 3.87348 0.166748 4.04167 0.166748ZM17.5833 6.66675H2.41667V19.6667H17.5833V6.66675ZM17.0417 4.50008L15.4167 2.33341H4.58333L2.95833 4.50008H17.0417ZM6.75 8.83341V11.0001C6.75 11.862 7.09241 12.6887 7.7019 13.2982C8.3114 13.9077 9.13805 14.2501 10 14.2501C10.862 14.2501 11.6886 13.9077 12.2981 13.2982C12.9076 12.6887 13.25 11.862 13.25 11.0001V8.83341H15.4167V11.0001C15.4167 12.4367 14.846 13.8144 13.8302 14.8302C12.8143 15.8461 11.4366 16.4167 10 16.4167C8.56341 16.4167 7.18566 15.8461 6.16984 14.8302C5.15402 13.8144 4.58333 12.4367 4.58333 11.0001V8.83341H6.75Z" fill="#0055FF"/>
</svg>
